<?xml version="1.0" encoding="UTF-8"?>
<svg id="Layer_1" xmlns="http://www.w3.org/2000/svg" version="1.1" viewBox="0 0 1080 512">
  <!-- Generator: Adobe Illustrator 29.7.1, SVG Export Plug-In . SVG Version: 2.1.1 Build 8)  -->
  <defs>
    <style>
      .st0 {
        fill: #ed9155;
        fill-rule: evenodd;
      }

      .st1 {
        fill: none;
        stroke: #848688;
        stroke-width: 2.83px;
      }

      .st2 {
        fill: #848688;
      }

      .st3 {
        fill: #30302f;
      }
    </style>
  </defs>
  <path d="M665.17,270.26l-95.7.27c3.26,20.39,19.03,34.53,41.05,36.97,12.51,1.36,28.55.54,44.05-13.05,4.89-1.9,10.6-1.36,12.77,3.53,2.45,4.62,0,10.06-4.89,12.78-12.51,12.51-31.27,18.49-54.65,16.04-35.07-3.26-59.27-30.72-59.27-64.16,0-35.34,28.55-63.89,64.16-63.89s62.53,27.19,62.53,61.44c0,4.89-3.81,8.97-8.43,9.79-.54.27-1.08.27-1.63.27ZM569.48,255.31h85.1c-2.18-21.48-19.58-37.79-41.87-37.79s-39.97,15.22-43.23,37.79Z"/>
  <g>
    <path class="st0" d="M245.99,222.34c0,35.78.04,71.57-.02,107.35-.03,20.3-6.47,38.3-19.9,53.63-12.39,14.15-28.03,22.48-46.56,25.43-6.22.99-10.13-2.29-10.42-8.57-.07-1.44-.01-2.89-.01-4.34,0-41.39.01-82.77,0-124.16,0-6.6.7-6.02-6.16-6.05-4.88-.02-9.76-.06-14.64.02-3.79.06-3.89.12-3.9,4.01-.05,12.11-.03,24.22-.02,36.32,0,2.37-.07,4.7-1.5,6.75-2.29,3.3-5.51,4.33-9.4,4.24-17.3-.38-33.1-5.45-47.14-15.5-20.6-14.75-32.48-34.97-36.38-59.91-1.32-8.42,2.5-12.75,10.95-12.82,7.74-.07,6.61.64,6.62-6.64.02-28.73,0-57.47.02-86.2,0-1.98.07-3.97.23-5.95.45-5.47,3.36-9.05,8.56-10.66,19.66-6.07,39.33-12.1,59-18.12,5.4-1.65,9.15,1.21,9.12,7.65-.2,37.23-.12,74.46-.08,111.69.01,8.62-1.18,7.51,7.34,7.6,4.34.04,8.68.04,13.01,0,4.29-.04,4.34-.08,4.35-4.57.03-16.44.01-32.89.01-49.34,0-13.56-.02-27.11,0-40.66.02-8.58,2.93-12.52,11.12-15.04,18.11-5.57,36.24-11.09,54.35-16.68,2.1-.65,4.17-1.32,6.36-.77,2.98.75,4.5,2.92,4.95,5.8.25,1.59.12,3.25.12,4.87,0,36.87,0,73.74,0,110.61Z"/>
    <rect class="st3" x="293.68" y="66.83" width="4.31" height="378.35"/>
    <path d="M531.13,250.69v66.34c0,5.71-4.62,10.33-10.33,10.33s-10.6-4.62-10.6-10.33v-66.34c0-17.67-14.14-31.54-30.99-31.54s-31.26,13.87-31.26,31.54v66.34c0,5.71-4.62,10.33-10.33,10.33s-10.33-4.62-10.33-10.33v-66.34c0-17.67-14.14-31.54-31.26-31.54s-30.99,13.87-30.99,31.54v66.34c0,5.71-4.89,10.33-10.6,10.33s-10.33-4.62-10.33-10.33v-66.34c0-28.82,23.11-51.93,51.93-51.93,16.85,0,32.08,8.16,41.59,20.66,9.52-12.51,24.47-20.66,41.59-20.66,28.55,0,51.93,23.11,51.93,51.93Z"/>
    <path d="M690.2,266.72v-119.62c0-5.44,4.62-10.06,10.33-10.06s10.33,4.62,10.33,10.06v119.62c0,27.46,14.41,39.96,36.98,39.96,5.71,0,10.06,4.62,10.06,10.33s-4.35,10.33-10.06,10.33c-35.61,0-57.64-23.65-57.64-60.63Z"/>
    <path d="M775.84,321.64c-1.63-3.53-1.36-7.88,1.09-11.14l70.96-90.53h-60.63c-5.71,0-10.6-4.62-10.6-10.33s4.89-10.33,10.6-10.33h81.83c3.81,0,7.61,2.17,9.52,5.71,1.63,3.53,1.09,7.88-1.36,10.88l-70.96,90.8h66.88c5.71,0,10.06,4.62,10.06,10.33s-4.35,10.33-10.06,10.33h-88.08c-4.08,0-7.61-2.17-9.25-5.71Z"/>
    <path d="M901.18,263.74c0-35.61,28.82-64.71,64.43-64.71s64.7,29.09,64.7,64.71-29.09,64.43-64.7,64.43-64.43-28.82-64.43-64.43ZM1009.92,263.74c0-24.47-19.85-44.31-44.31-44.31s-44.04,19.85-44.04,44.31,19.85,44.04,44.04,44.04,44.31-19.85,44.31-44.04Z"/>
    <path class="st2" d="M263.79,82.76h-.89v4.03c0,.53-.12.92-.35,1.17-.23.25-.54.38-.92.38-.41,0-.72-.13-.94-.39-.22-.26-.33-.65-.33-1.16v-9.66c0-.55.12-.95.37-1.19.25-.25.64-.37,1.19-.37h4.14c.57,0,1.06.02,1.46.07.41.05.77.15,1.1.3.39.17.74.4,1.05.71.3.31.53.67.69,1.08.16.41.24.84.24,1.3,0,.94-.26,1.68-.79,2.24-.53.56-1.33.96-2.4,1.19.45.24.88.59,1.29,1.06.41.47.78.97,1.1,1.49.32.53.57,1.01.75,1.43.18.43.27.72.27.88s-.05.33-.16.49c-.11.16-.25.29-.43.39-.18.09-.39.14-.63.14-.29,0-.53-.07-.72-.2-.19-.13-.36-.3-.5-.51-.14-.21-.33-.51-.57-.91l-1.02-1.7c-.37-.62-.69-1.1-.98-1.42-.29-.33-.58-.55-.88-.67-.3-.12-.67-.18-1.12-.18ZM267,77.67c-.3-.13-.88-.19-1.76-.19h-2.35v3.45h2.28c.61,0,1.12-.05,1.54-.16.42-.11.74-.29.96-.54.22-.25.33-.6.33-1.05,0-.35-.09-.66-.27-.92-.18-.27-.42-.46-.74-.6h0Z"/>
    <ellipse class="st1" cx="265.58" cy="81.96" rx="11.87" ry="11.83"/>
  </g>
</svg>